Coordinates
version=1
nRows=12
nColumns=24
inDegrees=yes

Units are S.I. units (second, meters, Newtons, ...)
Angles are in degrees.

endheader
time	pelvis_tilt	pelvis_list	pelvis_rotation	pelvis_tx	pelvis_ty	pelvis_tz	hip_flexion_r	hip_adduction_r	hip_rotation_r	knee_angle_r	ankle_angle_r	subtalar_angle_r	mtp_angle_r	hip_flexion_l	hip_adduction_l	hip_rotation_l	knee_angle_l	ankle_angle_l	subtalar_angle_l	mtp_angle_l	lumbar_extension	lumbar_bending	lumbar_rotation
      1.00000000	      4.60185954	      0.49090837	      0.65658584	      0.59199196	      1.04534131	      0.04506108	     -2.81396547	      1.43198542	     -3.97788597	    -10.66691874	      7.35985976	      0.00000013	      0.00000000	     18.76195757	     -2.30734231	     -4.31008039	    -56.89235835	      0.84316022	      0.00000479	      0.00000000	    -18.89122437	      0.78395505	      0.99157353
      1.01700000	      4.64488967	      0.48443985	      0.41677676	      0.59006819	      1.04526697	      0.04613803	     -4.27914012	      1.54190714	     -3.79044768	     -9.89690315	      7.74382516	      0.00000013	      0.00000000	     19.39812676	     -2.25022038	     -4.60718730	    -52.49636431	      1.07026616	      0.00000349	      0.00000000	    -19.01789935	      0.62030620	      1.32777454
      1.03300000	      4.65154719	      0.28865517	      0.24042344	      0.58807060	      1.04474128	      0.04732611	     -5.78715753	      1.86483740	     -3.68760538	     -8.96220893	      8.03369074	      0.00000002	      0.00000000	     19.84864968	     -2.55289240	     -5.22911190	    -47.55900392	      0.96756010	      0.00000212	      0.00000000	    -19.14934006	      0.69446405	      1.64564911
      1.05000000	      4.79186392	     -0.05101369	      0.12472558	      0.58609630	      1.04405303	      0.04804989	     -7.41110776	      2.30753826	     -3.60157629	     -8.10429946	      8.32470155	      0.00000004	      0.00000000	     19.90276339	     -3.01425997	     -6.08864445	    -42.09025447	      0.54580987	      0.00000060	      0.00000000	    -19.46982832	      0.92318953	      1.77936186
      1.06700000	      4.66177376	     -0.64573483	     -0.15869462	      0.58397098	      1.04232505	      0.04892516	     -8.65113936	      2.97583938	     -3.28285563	     -7.41521669	      8.65530496	      0.00000007	      0.00000000	     20.06620059	     -3.75532723	     -7.21872033	    -36.33134874	     -0.09465198	     -0.00000074	      0.00000000	    -19.32160521	      1.43104145	      2.27993666
      1.08300000	      4.57930062	     -1.05815892	     -0.40014103	      0.58227382	      1.04035402	      0.04921840	    -10.01066411	      3.39510568	     -2.85622850	     -6.68651811	      9.03325871	     -0.00000007	      0.00000000	     19.87423656	     -4.13230612	     -8.40066885	    -30.11010156	     -1.01123558	     -0.00000167	      0.00000000	    -19.37992133	      1.65191258	      2.47513016
      1.10000000	      4.47734291	     -1.68012032	     -0.67098731	      0.58104434	      1.03785720	      0.04976557	    -11.47058953	      4.02688561	     -2.35262610	     -5.80358806	      9.30708887	      0.00000016	      0.00000000	     19.68432100	     -4.60450190	     -9.27317044	    -24.07187473	     -1.86304446	     -0.00000164	      0.00000000	    -19.27416874	      2.15513616	      2.90346433
      1.11700000	      4.34705709	     -2.23341705	     -0.91973358	      0.57986167	      1.03496114	      0.05003046	    -12.77891859	      4.55593098	     -1.73387705	     -5.22783566	      9.75810802	      0.00000014	      0.00000000	     19.39234357	     -4.81459456	     -9.51488219	    -17.99491072	     -2.63754196	     -0.00000129	      0.00000000	    -19.22806073	      2.60730069	      3.03130915
      1.13300000	      4.29737088	     -2.90090726	     -1.39844503	      0.57845370	      1.03176563	      0.05005513	    -14.05393551	      5.09140148	     -0.86029657	     -4.90149887	     10.29026843	      0.00000013	      0.00000000	     19.05119776	     -5.14056153	     -9.19565562	    -12.41625054	     -3.07043791	     -0.00000049	      0.00000000	    -19.27195969	      3.04410828	      3.61526324
      1.15000000	      4.46655641	     -3.51456493	     -1.65467636	      0.57782448	      1.02871624	      0.04964018	    -15.61699624	      5.57459679	     -0.17145260	     -4.55021733	     10.77988467	      0.00000021	      0.00000000	     18.33406538	     -5.34681569	     -8.06734643	     -7.14740305	     -3.26668731	      0.00000034	      0.00000000	    -19.47221489	      3.56152806	      3.98037517
      1.16700000	      4.51675236	     -3.94847850	     -2.00405319	      0.57760108	      1.02529760	      0.04951384	    -17.13363528	      5.83908527	      0.43314612	     -4.10029907	     11.21487679	      0.00000017	      0.00000000	     17.85648474	     -5.52560796	     -6.74888283	     -2.93602036	     -3.08961678	      0.00000112	      0.00000000	    -19.64824560	      3.68812559	      3.96667684
      1.18300000	      4.69608697	     -4.34042959	     -2.55541895	      0.57717506	      1.02232456	      0.04913327	    -18.50010306	      5.91960221	      1.16409442	     -4.21689579	     11.77353486	      0.00000037	      0.00000000	     17.33559625	     -5.78196596	     -5.68111457	      0.13525836	     -2.70887607	      0.00000184	      0.00000000	    -19.80851349	      3.82296541	      4.60030210
